<?xml version="1.0" encoding="UTF-8"?><svg xmlns="http://www.w3.org/2000/svg" viewBox="0 0 92.14 177.58"><defs><style>.d{fill:#fc2838;}.e,.f{fill:#fff;}.g,.h{fill:#ffdb0c;}.i,.j{fill:#ffae0c;}.k{fill:#c91138;}.l{fill:#949494;}.m{fill:#808081;}.n{fill:#292d46;}.o{fill:#615a5e;}.p{fill:#77807d;}.h,.j{mix-blend-mode:multiply;opacity:.77;}.q,.f{opacity:.3;}.r{opacity:.3;}.s{isolation:isolate;}.t{fill:none;stroke:#000;stroke-linecap:round;stroke-linejoin:round;stroke-width:6px;}</style></defs><g class="s"><g id="a"/><g id="b"><g id="c"><g><path class="t" d="M46.02,3c-6.65,6.39-11.7,5.32-11.7,5.32-2.12,4.26-8.84,5.06-8.84,5.06,6.18,6.88,11.87,26.54,13.58,32.87-1.78,2.1-2.99,4.97-3.3,8.2h-.26v1.33h.19v.03c-17.36,4.64-30.16,20.65-30.16,39.69H3l1.29,2.43,.93,2.68v33.47h.07c-.04,.73-.06,1.46-.06,2.2,0,3.48,.29,4.25,1.14,7.46l28.24,30.68c.24,.06,.48,.11,.72,.17h21.84l28.12-30.84c.46-2.42,.71-4.91,.71-7.46,0-.74-.02-1.47-.06-2.2h.07v-33.47h0l.44-.89,.87-1.79h0l1.83-2.43h-2.57c0-19.04-12.64-35.05-29.77-39.69v-.03h.21v-1.33h-.28c-.33-3.43-1.68-6.46-3.65-8.59,1.84-6.71,7.42-25.73,13.48-32.47,0,0-6.72-.8-8.84-5.06,0,0-5.05,1.06-11.7-5.32"/><g><path class="d" d="M45.03,48.18h-5.45s-6.7-26.61-14.11-34.86c0,0,6.72-.8,8.84-5.06,0,0,5.05,1.06,11.7-5.32l-.97,45.24Z"/><path class="k" d="M46.97,48.18h5.45s6.7-26.61,14.11-34.86c0,0-6.72-.8-8.84-5.06,0,0-5.05,1.06-11.7-5.32l.97,45.24Z"/><path class="e" d="M40.93,45.12c-1.37-11.39-3.09-22.78-5.62-33.98,3.19,11.08,5.57,22.35,7.6,33.7l-1.98,.28h0Z"/><path class="e" d="M49.55,44.84c2.04-11.35,4.42-22.63,7.6-33.7-2.53,11.2-4.25,22.59-5.62,33.98l-1.98-.28h0Z"/><g><path class="m" d="M85.98,99.61h-24.79c-4.53-1.81-9.47-2.82-14.64-2.82-.32,0-.63,.04-.95,.05v5.69c.21-.01,.42-.03,.63-.03,6.03,0,10.92,4.89,10.92,10.92v61.11l28.12-30.84c.46-2.42,.71-4.91,.71-7.46,0-.74-.02-1.47-.06-2.2h.07v-34.41Z"/><path class="l" d="M35.31,113.42c0-5.82,4.55-10.56,10.29-10.89v-5.69c-.32-.01-.63-.05-.95-.05-5.18,0-10.12,1.01-14.64,2.82H5.21v34.41h.07c-.04,.73-.06,1.46-.06,2.2,0,3.48,.29,4.25,1.14,7.46l28.24,30.68c.24,.06,.48,.11,.72,.17v-61.11Z"/><path class="n" d="M21.6,91.07h49.67c2.97,0,5.38,2.41,5.38,5.38v12.1c0,2.97-2.41,5.38-5.38,5.38H21.6c-2.97,0-5.38-2.41-5.38-5.38v-12.1c0-2.97,2.41-5.38,5.38-5.38Z"/><path class="o" d="M57.15,174.53v-61.11c0-6.03-4.89-10.92-10.92-10.92s-10.92,4.89-10.92,10.92v61.11h21.84Z"/><path class="n" d="M57.15,168.37v-54.96c0-6.03-4.89-10.92-10.92-10.92s-10.92,4.89-10.92,10.92v54.96h21.84Z"/><g><path class="l" d="M46.03,54.39c-22.38,0-40.52,18.38-40.52,41.05H86.56c0-22.67-18.14-41.05-40.52-41.05Z"/><path class="p" d="M46.08,54.4v41.04h40.48c0-22.67-17.91-41.05-40.01-41.05-.16,0-.31,.01-.47,.01Z"/><path class="l" d="M46.23,42.59c-5.84,0-10.57,6.03-10.57,13.46h21.14c0-7.43-4.73-13.46-10.57-13.46Z"/><path class="p" d="M46.08,42.59v13.46h10.69c0-7.43-4.73-13.46-10.57-13.46-.04,0-.08,0-.12,0Z"/><g class="q"><path class="e" d="M14.14,76.57c10.2-15.38,24.08-18,24.66-18.1"/></g></g><g><polygon class="l" points="39.85 101.5 37.61 128.96 46.23 135.66 46.23 101.5 39.85 101.5"/><polygon class="p" points="52.61 101.5 54.85 128.96 46.23 135.66 46.23 101.5 52.61 101.5"/></g></g><polygon class="f" points="40.58 104.23 38.77 127.79 40.58 129.16 40.58 104.23"/><polygon class="g" points="2.99 95.44 89.13 95.44 85.98 99.61 52.61 101.5 39.85 101.5 5.21 99.61 2.99 95.44"/><polygon class="g" points="26.47 95.44 40.75 92.7 46.03 92.7 46.08 95.44 26.47 95.44"/><polygon class="g" points="66.04 95.44 51.76 92.7 46.48 92.7 46.44 95.44 66.04 95.44"/><polygon class="i" points="4.28 97.87 87.3 97.87 85.98 100.55 52.61 103.45 39.85 103.45 5.21 100.55 4.28 97.87"/><g><rect class="g" x="45.15" y="55.56" width="1.85" height="80.09"/><polygon class="h" points="87.3 97.87 87.3 97.87 89.13 95.44 47 95.44 47 97.87 87.3 97.87"/><polygon class="j" points="85.98 99.61 52.61 101.5 47 101.5 47 103.45 52.61 103.45 85.98 100.55 87.3 97.87 85.98 99.61"/><polygon class="i" points="39.85 101.5 5.21 99.61 4.28 97.87 5.21 100.55 39.85 103.45 45.15 103.45 45.15 101.5 39.85 101.5"/><polygon class="j" points="47 97.87 47 101.5 52.61 101.5 85.98 99.61 87.3 97.87 87.3 97.87 47 97.87"/></g><polygon class="h" points="66.04 95.44 52.18 92.7 47.05 92.7 47 95.44 66.04 95.44"/><rect class="g" x="35.49" y="54.39" width="21.5" height="1.33"/><g class="r"><path class="e" d="M31.88,163.86c-7.74-6.98-14.84-14.57-21.82-22.29-1.69-6.5-.87-13.16-.32-19.75,.32,3.23,.51,6.46,.67,9.7,.08,3.17,.63,6.31,1.45,9.35l-.22-.4c7.06,7.53,13.97,15.18,20.24,23.4h0Z"/></g></g></g></g></g></g></svg>