<?xml version="1.0" encoding="UTF-8" standalone="no"?>
<svg
   xmlns:dc="http://purl.org/dc/elements/1.1/"
   xmlns:cc="http://creativecommons.org/ns#"
   xmlns:rdf="http://www.w3.org/1999/02/22-rdf-syntax-ns#"
   xmlns:svg="http://www.w3.org/2000/svg"
   xmlns="http://www.w3.org/2000/svg"
   xmlns:sodipodi="http://sodipodi.sourceforge.net/DTD/sodipodi-0.dtd"
   xmlns:inkscape="http://www.inkscape.org/namespaces/inkscape"
   inkscape:version="1.0beta2 (2b71d25, 2019-12-03)"
   sodipodi:docname="opa_logo.svg"
   id="svg841"
   version="1.1"
   fill="none"
   viewBox="0 0 56 56"
   height="56"
   width="56">
  <metadata
     id="metadata847">
    <rdf:RDF>
      <cc:Work
         rdf:about="">
        <dc:format>image/svg+xml</dc:format>
        <dc:type
           rdf:resource="http://purl.org/dc/dcmitype/StillImage" />
      </cc:Work>
    </rdf:RDF>
  </metadata>
  <defs
     id="defs845" />
  <sodipodi:namedview
     inkscape:current-layer="g958"
     inkscape:window-maximized="1"
     inkscape:window-y="25"
     inkscape:window-x="0"
     inkscape:cy="12.275754"
     inkscape:cx="22.555497"
     inkscape:zoom="8.5049505"
     showgrid="false"
     id="namedview843"
     inkscape:window-height="1067"
     inkscape:window-width="1792"
     inkscape:pageshadow="2"
     inkscape:pageopacity="0"
     guidetolerance="10"
     gridtolerance="10"
     objecttolerance="10"
     borderopacity="1"
     inkscape:document-rotation="0"
     bordercolor="#666666"
     pagecolor="#ffffff" />
  <g
     transform="translate(0,1.259893)"
     id="g958">
    <path
       sodipodi:nodetypes="cccssccc"
       inkscape:connector-curvature="0"
       style="opacity:1;fill:#810000;fill-opacity:1;stroke-width:0.770423"
       id="path942"
       fill="#566366"
       d="M 28.199798,1.2390454 C 21.965719,-2.6594698 23.057796,2.931829 17.93,1.0614729 l 3.990749,2.8320704 c 0,0 1.344407,0.7931709 -2.222545,4.003815 -0.811265,0.7302277 4.37838,-2.0393139 5.255844,-1.1640621 1.627077,1.6229768 1.415641,5.6180228 1.415641,5.6180228 l 1.830109,0.0987 z" />
    <path
       d="m 27.9,1.2390453 c 6.234079,-3.8985151 5.142002,1.6927837 10.269798,-0.1775724 l -3.990749,2.8320704 c 0,0 -1.344407,0.7931709 2.222545,4.003815 0.811265,0.7302272 -4.37838,-2.0393139 -5.255844,-1.1640621 -1.627077,1.6229765 -1.415641,5.6180228 -1.415641,5.6180228 L 27.9,12.450019 Z"
       fill="#566366"
       id="path835"
       style="opacity:1;fill:#810000;fill-opacity:1;stroke-width:0.770423"
       inkscape:connector-curvature="0"
       sodipodi:nodetypes="cccssccc" />
    <g
       id="g924">
      <g
         id="g861">
        <path
           d="m 28,12.25 c -4.642169,0 -4.05341,0.01035 -7.593642,2.355802 -3.37619,2.236774 -4.010209,4.802006 -5.429586,8.817419 l 0.235157,17.2922 c 0,0 -1.108264,1.455668 0.991394,5.100435 2.089057,3.626364 5.352635,7.841358 5.352635,7.841358 l 1.33229,-0.75988 1.667858,-6.103341 -0.953373,-14.742782 -6.394418,-1.615002 -0.194158,-3.802656 9.249018,2.268016 -1.143224,8.202199 2.898356,2.816669 z"
           fill="#7D9199"
           id="path837"
           inkscape:connector-curvature="0"
           sodipodi:nodetypes="csccscccccccccc" />
        <path
           sodipodi:nodetypes="cc"
           style="opacity:0.334405;fill:#b3b3b3;stroke:#000000;stroke-width:0;stroke-linecap:round;stroke-linejoin:miter;stroke-miterlimit:1;stroke-dasharray:none;stroke-opacity:1;paint-order:normal"
           d="m 14.976772,23.423221 c 0,0 11.809846,-9.107703 13.023228,-11.173221"
           id="path855"
           inkscape:connector-curvature="0" />
      </g>
      <path
         inkscape:connector-curvature="0"
         id="path855-1"
         d="m 27.981693,39.920437 c 0,0 -1.049003,-24.864114 0.164379,-26.929632"
         style="opacity:0.334405;fill:#b3b3b3;stroke:#000000;stroke-width:0;stroke-linecap:round;stroke-linejoin:miter;stroke-miterlimit:1;stroke-dasharray:none;stroke-opacity:1;paint-order:normal"
         sodipodi:nodetypes="cc" />
      <path
         inkscape:connector-curvature="0"
         id="path855-8"
         d="m 15.211929,40.715421 c 0,0 7.638723,13.424381 7.676319,12.181913"
         style="opacity:0.334405;fill:#b3b3b3;stroke:#000000;stroke-width:0;stroke-linecap:round;stroke-linejoin:miter;stroke-miterlimit:1;stroke-dasharray:none;stroke-opacity:1;paint-order:normal"
         sodipodi:nodetypes="cc" />
    </g>
    <g
       id="g936"
       transform="matrix(-1,0,0,1,56,0)">
      <g
         id="g930">
        <path
           sodipodi:nodetypes="csccscccccccccc"
           inkscape:connector-curvature="0"
           id="path926"
           fill="#7D9199"
           d="m 28,12.25 c -4.642169,0 -4.05341,0.01035 -7.593642,2.355802 -3.37619,2.236774 -4.010209,4.802006 -5.429586,8.817419 l 0.235157,17.2922 c 0,0 -1.108264,1.455668 0.991394,5.100435 2.089057,3.626364 5.352635,7.841358 5.352635,7.841358 l 1.33229,-0.75988 1.667858,-6.103341 -0.953373,-14.742782 -6.394418,-1.615002 -0.194158,-3.802656 9.249018,2.268016 -1.143224,8.202199 2.861742,2.816669 z"
           style="fill:#566366;fill-opacity:1" />
        <path
           inkscape:connector-curvature="0"
           id="path928"
           d="m 14.976772,23.423221 c 0,0 11.809846,-9.107703 13.023228,-11.173221"
           style="opacity:0.334405;fill:#b3b3b3;stroke:#000000;stroke-width:0;stroke-linecap:round;stroke-linejoin:miter;stroke-miterlimit:1;stroke-dasharray:none;stroke-opacity:1;paint-order:normal"
           sodipodi:nodetypes="cc" />
      </g>
      <path
         sodipodi:nodetypes="cc"
         style="opacity:0.334405;fill:#b3b3b3;stroke:#000000;stroke-width:0;stroke-linecap:round;stroke-linejoin:miter;stroke-miterlimit:1;stroke-dasharray:none;stroke-opacity:1;paint-order:normal"
         d="m 27.981693,39.920437 c 0,0 -1.049003,-24.864114 0.164379,-26.929632"
         id="path932"
         inkscape:connector-curvature="0" />
      <path
         sodipodi:nodetypes="cc"
         style="opacity:0.334405;fill:#b3b3b3;stroke:#000000;stroke-width:0;stroke-linecap:round;stroke-linejoin:miter;stroke-miterlimit:1;stroke-dasharray:none;stroke-opacity:1;paint-order:normal"
         d="m 15.211929,40.715421 c 0,0 7.638723,13.424381 7.676319,12.181913"
         id="path934"
         inkscape:connector-curvature="0" />
    </g>
    <path
       inkscape:connector-curvature="0"
       id="path855-81"
       d="m 28.199798,1.2390454 c 0,0 -0.186365,-0.010609 -0.240782,0.4302219 -0.224593,1.8194446 -0.558152,6.6156797 0.418579,4.9530081"
       style="opacity:0.697749;fill:#550003;fill-opacity:1;stroke:#000000;stroke-width:0;stroke-linecap:round;stroke-linejoin:miter;stroke-miterlimit:1;stroke-dasharray:none;stroke-opacity:1;paint-order:normal"
       sodipodi:nodetypes="csc" />
  </g>
</svg>
