<?xml version="1.0" encoding="utf-8"?>
<!-- Generator: Adobe Illustrator 26.0.3, SVG Export Plug-In . SVG Version: 6.00 Build 0)  -->
<svg version="1.1" id="Layer_1" xmlns="http://www.w3.org/2000/svg" xmlns:xlink="http://www.w3.org/1999/xlink" x="0px" y="0px"
	 viewBox="0 0 31.6 31.6" style="enable-background:new 0 0 31.6 31.6;" xml:space="preserve">
<path d="M15.7,1.3C7.6,1.3,1,8,1,16.1c0,6.5,4.2,12,10.1,14c0.7,0.1,0.9-0.3,0.9-0.7v-2.7C7.9,27.5,7,24.8,7,24.8
	c-0.7-1.7-1.7-2.1-1.7-2.1c-1.3-0.9,0.1-0.9,0.1-0.9c1.6,0.2,2.4,1.6,2.4,1.6c1.3,2.2,3.5,1.6,4.3,1.2c0.1-0.9,0.6-1.6,0.9-2
	c-3.3-0.4-6.7-1.7-6.7-7.3c0-1.6,0.6-2.9,1.5-3.9C7.7,11,7.2,9.5,8.1,7.5c0,0,1.2-0.4,4,1.5c1.2-0.4,2.4-0.5,3.7-0.5
	c1.2,0,2.5,0.2,3.7,0.5c2.8-1.9,4-1.5,4-1.5c0.8,2.1,0.3,3.5,0.2,3.9c0.9,1,1.5,2.3,1.5,3.9c0,5.7-3.5,6.9-6.7,7.3
	c0.6,0.5,1,1.4,1,2.7v4c0,0.4,0.3,0.8,1,0.7c5.9-2,10.1-7.5,10.1-14C30.4,8,23.9,1.3,15.7,1.3z"/>
</svg>
