<?xml version="1.0" encoding="UTF-8"?><svg xmlns="http://www.w3.org/2000/svg" viewBox="0 0 14.07 14"><g id="a"/><g id="b"><g id="c"><g><g><rect x="4" y="3" width="6" height="1"/><rect x="4" y="6" width="3" height="1"/><path d="M5.02,12.28l.16-.28H1V1H11V5.87c.27,.16,.5,.39,.66,.68l.34,.58V0H0V13H4.8c.03-.25,.1-.49,.23-.72Z"/><rect x="2" y="3" width="1" height="1"/><rect x="4" y="9" width="2" height="1"/><rect x="2" y="9" width="1" height="1"/><rect x="2" y="6" width="1" height="1"/></g><path d="M13.96,12.87l-3.31-5.73c-.29-.5-1.02-.5-1.31,0l-3.31,5.73c-.29,.5,.07,1.13,.65,1.13h6.62c.58,0,.94-.63,.65-1.13Zm-4.46-3.56c0-.28,.22-.5,.5-.5s.5,.22,.5,.5v1.55c0,.28-.22,.5-.5,.5s-.5-.22-.5-.5v-1.55Zm.85,3.72s-.1,.08-.16,.11c-.06,.02-.13,.04-.19,.04-.07,0-.13-.02-.19-.04-.06-.03-.12-.06-.16-.11-.05-.05-.09-.1-.11-.16-.03-.06-.04-.13-.04-.19,0-.07,0-.13,.04-.19,.02-.07,.06-.12,.11-.17,.04-.04,.1-.08,.16-.1,.12-.05,.26-.05,.38,0,.06,.02,.12,.06,.16,.1,.05,.05,.08,.1,.11,.17,.02,.06,.04,.12,.04,.19,0,.13-.06,.26-.15,.35Z"/></g></g></g></svg>